<svg xmlns="http://www.w3.org/2000/svg" width="36" height="36" viewBox="0 0 36 36">
  <defs>
    <style>
      .a {
        fill: none;
      }

      .b {
        fill: #4285f4;
      }

      .c {
        fill: #ea4335;
      }

      .d {
        fill: #34a853;
      }

      .e {
        fill: #fbbc05;
      }

      .f {
        fill: #fbbc04;
      }
    </style>
  </defs>
  <g>
    <rect class="a" width="36" height="36"/>
    <g>
      <path class="b" d="M27.8683,28.2654v1.3717h1.8284a16.4985,16.4985,0,0,0-.8449-24.0658h-1.78V7.0187a14.2244,14.2244,0,0,1,.7969,21.2467Z"/>
      <path class="c" d="M3.5538,10.0237v1.37H5.38a14.2334,14.2334,0,0,1,21.6916-4.375l1.78-1.4474a16.5015,16.5015,0,0,0-25.298,4.4524Z"/>
      <path class="d" d="M27.8683,28.2654A14.2293,14.2293,0,0,1,5.3966,24.639H3.6156v1.4479a16.5015,16.5015,0,0,0,26.0811,3.55Z"/>
      <path class="e" d="M3.75,18a14.1582,14.1582,0,0,1,1.63-6.6063l-1.826-1.37a16.5148,16.5148,0,0,0,.0618,16.0632l1.781-1.4479A14.1581,14.1581,0,0,1,3.75,18Z"/>
      <path class="d" d="M21,20.0576V25a1.9915,1.9915,0,0,1-1.9843,2,2.0806,2.0806,0,0,1-2.0864-2V20.0576Z"/>
      <polygon class="b" points="21 11 21 23.113 16.928 20.058 16.928 11 21 11"/>
      <path class="f" d="M20.2291,12.5812,15.233,16.6427a1.97,1.97,0,0,1-1.2644.4568,2.0022,2.0022,0,0,1-1.267-3.5432l4.962-4.11Z"/>
      <path class="c" d="M16.928,11a2.0141,2.0141,0,0,1,.7343-1.5537A1.9745,1.9745,0,0,1,19.0157,9a2.0029,2.0029,0,0,1,1.2631,3.5419l-3.3495,2.7225V11Z"/>
    </g>
  </g>
</svg>
